# xmcd
#
# Track frame offsets: 
#        300
#        27599
#        46612
#        68398
#        90025
#        106719
#        130267
#        158964
#        178114
#        202976
#        232609
#
# Disc length: 3386 seconds
#
# Revision: 0
# Processed by: cddbd v1.5.2PL0 Copyright (c) Steve Scherf et al.
# Submitted via: ExactAudioCopy v1.0b1
#
DISCID=760d360b
DTITLE=Robert Cray Band - Some Rainy Morning
DYEAR=1995
DGENRE=Contemporary Blues
TTITLE0=Moan
TTITLE1=I'll Go On
TTITLE2=Steppin' Out
TTITLE3=Never Mattered Much
TTITLE4=Tell The Landlord
TTITLE5=Little Big Boy
TTITLE6=Enough For Me
TTITLE7=Jealous Love
TTITLE8=Will You Think Of Me
TTITLE9=Holdin' On
TTITLE10=Love Well Spent
EXTD=
EXTT0=
EXTT1=
EXTT2=
EXTT3=
EXTT4=
EXTT5=
EXTT6=
EXTT7=
EXTT8=
EXTT9=
EXTT10=
PLAYORDER=
